<?xml version="1.0" encoding="UTF-8"?> <svg xmlns="http://www.w3.org/2000/svg" xmlns:xlink="http://www.w3.org/1999/xlink" version="1.1" id="Ebene_1" x="0px" y="0px" viewBox="0 0 70 70" style="enable-background:new 0 0 70 70;" xml:space="preserve"> <style type="text/css"> .st0{fill:#92D6E0;} .st1{fill:#003273;} .st2{fill:#FFFFFF;} </style> <g> <path class="st0" d="M35,70c19.3,0,35-15.7,35-35S54.3,0,35,0S0,15.7,0,35S15.7,70,35,70"></path> <path class="st1" d="M51.3,32.5h7.8v-2.4h-5V19.9h-2.9L51.3,32.5L51.3,32.5z M42.7,27.2l0.8-2.7c0.2-0.8,0.4-1.7,0.6-2.4h0.1 c0.2,0.8,0.4,1.7,0.6,2.4l0.8,2.7H42.7z M45.9,29.3l1,3.2H50l-3.9-12.6h-3.7l-3.8,12.6h2.9l0.9-3.2H45.9z M36.9,24.9h-4.6v-2.6h4.9 v-2.4h-7.7v12.6h8v-2.4h-5.2v-3h4.6V24.9z M19.4,22.1c0.3-0.1,0.6-0.1,1.3-0.1c2.4,0,3.9,1.3,3.9,4c0,3-1.7,4.5-4.3,4.4 c-0.3,0-0.8,0-1-0.1L19.4,22.1L19.4,22.1z M16.5,32.5c0.7,0.1,1.7,0.2,3.2,0.2c2.4,0,4.5-0.5,5.8-1.7c1.2-1,2.1-2.7,2.1-5.1 c0-2.2-0.8-3.8-2.1-4.8c-1.2-0.9-2.7-1.3-5.2-1.3c-1.4,0-2.8,0.1-3.8,0.3L16.5,32.5L16.5,32.5z M11.3,32.5h2.9V19.9h-2.9V32.5z"></path> <path class="st2" d="M54,49.1h2.5v-4.3c0-0.3,0.1-0.5,0.1-0.6c0.2-0.8,0.8-1.3,1.7-1.3c0.3,0,0.4,0,0.6,0.1v-2.4 c-0.2-0.1-0.3-0.1-0.5-0.1c-0.8,0-1.7,0.5-2.1,1.7h-0.1l-0.1-1.5H54c0.1,0.8,0.1,1.6,0.1,2.7C54,43.5,54,49.1,54,49.1z M47.5,44 c0.1-0.8,0.4-1.8,1.5-1.8c1,0,1.3,1,1.3,1.8H47.5z M52.5,45.8c0.1-0.3,0.1-0.6,0.1-1.1c0-2.2-1-4.1-3.5-4.1c-2.6,0-4,2.2-4,4.5 c0,2.6,1.5,4.3,4.2,4.3c1.1,0,2-0.2,2.9-0.5l-0.3-1.7c-0.6,0.2-1.3,0.3-2.1,0.3c-1.1,0-2.2-0.5-2.2-1.7H52.5z M41.2,45.6 c0,0.2,0,0.4-0.1,0.6c-0.1,0.7-0.7,1.1-1.3,1.1c-1,0-1.6-0.9-1.6-2.4c0-1.3,0.5-2.4,1.6-2.4c0.7,0,1.2,0.6,1.3,1.2 c0.1,0.1,0.1,0.3,0.1,0.4L41.2,45.6L41.2,45.6z M41.2,37v4.5h-0.1c-0.3-0.6-1-1-2-1c-1.8,0-3.5,1.6-3.4,4.5c0,2.5,1.3,4.3,3.3,4.3 c1,0,1.9-0.5,2.4-1.3h0.1l0.1,1.1h2.2c-0.1-0.6-0.1-1.6-0.1-2.5V37H41.2z M33,37c-0.8,0-1.3,0.5-1.3,1.3c0,0.7,0.5,1.3,1.3,1.3 c0.8,0,1.3-0.6,1.3-1.3C34.3,37.6,33.8,37,33,37 M34.2,40.7h-2.5v8.5h2.5V40.7z M24.4,48.7c0.6,0.3,1.5,0.6,2.5,0.6 c2.2,0,3.4-1.1,3.4-2.7c0-1.1-0.6-2-2.1-2.6c-1-0.4-1.3-0.6-1.3-1c0-0.4,0.3-0.7,1-0.7s1.3,0.3,1.7,0.4l0.4-1.8 c-0.5-0.3-1.3-0.4-2.2-0.4c-2,0-3.2,1.2-3.2,2.7c0,0.9,0.6,1.8,2.2,2.5c0.9,0.4,1.1,0.6,1.1,1s-0.3,0.7-1.1,0.7 c-0.7,0-1.6-0.3-2-0.6L24.4,48.7z M15.6,49.1h2.5v-5c0-0.3,0.1-0.5,0.1-0.7c0.2-0.5,0.6-0.9,1.2-0.9c0.9,0,1.1,0.7,1.1,1.7v4.9h2.5 V44c0-2.3-1.1-3.5-2.8-3.5c-1.3,0-2.1,0.7-2.5,1.3h-0.1l-0.1-1.1h-2.2c0.1,0.8,0.1,1.7,0.1,2.7V49.1z M11.1,49.1h2.5V37.5h-2.5 V49.1z"></path> </g> </svg> 